<svg width="14" height="21" viewBox="0 0 14 21" fill="none" xmlns="http://www.w3.org/2000/svg">
<path fill-rule="evenodd" clip-rule="evenodd" d="M12.7448 9.89409V19.3104H1.25517V9.89409H12.7448ZM0 9.2665V19.938C0 20.2846 0.28098 20.5656 0.627586 20.5656H13.3724C13.719 20.5656 14 20.2846 14 19.938V9.2665C14 8.9199 13.719 8.63892 13.3724 8.63892H0.627586C0.28098 8.63892 0 8.9199 0 9.2665Z" fill="#0957C3"/>
<path fill-rule="evenodd" clip-rule="evenodd" d="M7.25484 0C4.53596 0 2.33105 2.19787 2.33105 4.91008V8.81056C2.33105 9.15717 2.61203 9.43815 2.95864 9.43815C3.30525 9.43815 3.58623 9.15717 3.58623 8.81056V4.91008C3.58623 2.89198 5.22827 1.25517 7.25484 1.25517C9.28141 1.25517 10.9235 2.89198 10.9235 4.91008C10.9235 5.25669 11.2044 5.53767 11.551 5.53767C11.8976 5.53767 12.1786 5.25669 12.1786 4.91008C12.1786 2.19787 9.97373 0 7.25484 0Z" fill="#0957C3"/>
</svg>
