<svg width="30" height="26" viewBox="0 0 30 26" fill="none" xmlns="http://www.w3.org/2000/svg">
<path d="M28 8L7 12L7.32258 2.46667L8.29032 1L26.5 1.5L27.5 2.5L28 8Z" fill="white"/>
<path d="M7 21H27.2308L27.9385 20.0043V14.6936L29 14.3617V8.71915L27.9385 8.05532V6.6383L25.257 6.39573C22.3762 6.13513 19.4733 6.51417 16.756 7.50574C14.5917 8.2955 12.2368 8.39998 10.0112 7.80498L7 7V21Z" fill="#C1D5F0"/>
<path d="M27.8965 7.4854V3.27466C27.8965 2.17009 27.001 1.27466 25.8965 1.27466H8.91797C7.8134 1.27466 6.91797 2.17009 6.91797 3.27466V19.149C6.91797 20.2536 7.8134 21.149 8.91797 21.149H25.8965C27.001 21.149 27.8965 20.2536 27.8965 19.149V14.9383" stroke="#0957C3"/>
<path d="M17.959 11.2118C17.959 9.38242 19.442 7.89941 21.2714 7.89941H28.891C28.9514 7.89941 29.0003 7.94836 29.0003 8.00873V14.4149C29.0003 14.4753 28.9514 14.5242 28.891 14.5242H21.2714C19.442 14.5242 17.959 13.0412 17.959 11.2118V11.2118Z" stroke="#0957C3"/>
<line x1="20.668" y1="11.8159" x2="24.0845" y2="11.8159" stroke="#0957C3" stroke-linecap="round"/>
<ellipse cx="7.4652" cy="18.065" rx="6.4652" ry="6.47902" fill="white" stroke="#0957C3"/>
<path d="M5.03328 20.122C4.84784 19.8501 4.92489 19.4743 5.2053 19.2831L9.59658 16.2881C9.87699 16.0968 10.2549 16.1622 10.4404 16.4341C10.6258 16.706 10.5488 17.0818 10.2684 17.273L5.87707 20.2681C5.59666 20.4593 5.21871 20.3939 5.03328 20.122Z" fill="#0957C3"/>
<path d="M5.72725 17.071C5.59429 16.876 5.53541 16.6306 5.58737 16.3772C5.6913 15.8703 6.18863 15.5311 6.69842 15.6194C7.20821 15.7076 7.53711 16.1898 7.43318 16.6967C7.32925 17.2035 6.83192 17.5427 6.32213 17.4545C6.07252 17.4067 5.86021 17.2659 5.72725 17.071Z" fill="#0957C3"/>
<path d="M8.13057 20.55C7.99761 20.355 7.93873 20.1096 7.99069 19.8562C8.09462 19.3493 8.59195 19.0101 9.10174 19.0984C9.61153 19.1866 9.94043 19.6688 9.8365 20.1757C9.73257 20.6825 9.23524 21.0217 8.72545 20.9335C8.47584 20.8857 8.26353 20.7449 8.13057 20.55Z" fill="#0957C3"/>
</svg>
