<svg width="25" height="22" viewBox="0 0 25 22" fill="none" xmlns="http://www.w3.org/2000/svg">
<path d="M24.3995 9.56613C23.7411 8.89733 22.7581 8.81211 22.0098 9.35842L16.7005 13.2291C16.7916 12.2886 16.2951 11.3689 15.4598 11.0067L13.3191 10.0782C11.3281 9.21453 9.13807 9.22103 7.15249 10.0967L4.62794 11.2091C4.20573 10.8543 3.67936 10.6521 3.11797 10.6521C2.73632 10.6521 2.36878 10.7455 2.0253 10.9299L0.684491 11.6511C0.388871 11.8098 0.168573 12.0831 0.0640286 12.4203C-0.0403894 12.7571 -0.0164577 13.1177 0.131163 13.4357L3.77068 21.2654C3.98178 21.7186 4.40563 22 4.87683 22C5.0664 22 5.25684 21.9519 5.42928 21.8598L6.77009 21.1383C7.35578 20.8235 7.79222 20.2825 7.99904 19.615C8.08583 19.3348 8.12513 19.0464 8.12299 18.7593L13.9746 18.8962C14.0145 18.8972 14.0544 18.8976 14.0942 18.8976C15.1802 18.8976 16.2274 18.552 17.1299 17.8941L24.1592 12.7695C24.6426 12.4169 24.9468 11.8558 24.9937 11.2296C25.0405 10.6035 24.8238 9.99714 24.3995 9.56613ZM6.80409 19.1866C6.70371 19.5107 6.49172 19.7733 6.20681 19.9264L4.88666 20.6368L1.26817 12.8521L2.58807 12.1421C2.75484 12.0526 2.93307 12.0072 3.11785 12.0072C3.57305 12.0072 3.98216 12.2783 4.18508 12.7145L6.73885 18.2093C6.88143 18.5154 6.90448 18.8625 6.80409 19.1866ZM23.7381 11.1205C23.722 11.3349 23.6178 11.527 23.4523 11.6477L16.4231 16.7722C15.7051 17.2957 14.8699 17.5641 14.0018 17.5414L7.76905 17.3956L5.41341 12.3274L7.62999 11.3506C9.31025 10.6097 11.1633 10.6043 12.848 11.3349L14.9889 12.2634C15.3326 12.4125 15.5226 12.816 15.4307 13.2028C15.3287 13.6334 14.9622 13.9148 14.5577 13.887C14.5464 13.8851 14.5349 13.8849 14.5236 13.883L10.5877 13.1613C10.2447 13.0983 9.9195 13.3465 9.86106 13.7154C9.80262 14.0842 10.0331 14.4342 10.376 14.497L10.5196 14.5233L10.5134 14.5648C10.5135 14.5648 12.7642 14.9515 14.2728 15.2146C14.3023 15.2198 14.3315 15.2223 14.3609 15.2261C15.3372 15.3821 16.3218 15.142 17.1396 14.5458L22.7166 10.48C22.9725 10.2932 23.3091 10.3223 23.5344 10.5514C23.68 10.6989 23.7541 10.9063 23.7381 11.1205Z" fill="#0957C3"/>
<path d="M15 1L13.5 1.5V4H10.5V6H13L13.5 8.5H15.5L16 6H18V4L15.5 3.5L15 1Z" fill="#C1D5F0"/>
<path d="M15.5405 9.57209H13.3369C12.989 9.57209 12.7071 9.29007 12.7071 8.94231V6.74839H10.5136C10.1658 6.74839 9.88379 6.46638 9.88379 6.11861V3.91588C9.88379 3.56811 10.1658 3.2861 10.5136 3.2861H12.7072V1.09219C12.7072 0.744419 12.9891 0.462402 13.337 0.462402H15.5406C15.8885 0.462402 16.1704 0.744419 16.1704 1.09219V3.2861H18.3632C18.7111 3.2861 18.993 3.56811 18.993 3.91588V6.11861C18.993 6.46638 18.7111 6.74839 18.3632 6.74839H16.1704V8.94231C16.1703 9.2902 15.8884 9.57209 15.5405 9.57209ZM13.9667 8.31252H14.9107V6.11861C14.9107 5.77084 15.1926 5.48883 15.5405 5.48883H17.7333V4.54566H15.5405C15.1926 4.54566 14.9107 4.26365 14.9107 3.91588V1.72197H13.9667V3.91588C13.9667 4.26365 13.6848 4.54566 13.3369 4.54566H11.1434V5.48883H13.337C13.6849 5.48883 13.9668 5.77084 13.9668 6.11861V8.31252H13.9667Z" fill="#0957C3"/>
</svg>
