<svg width="34" height="27" viewBox="0 0 34 27" fill="none" xmlns="http://www.w3.org/2000/svg">
<path d="M19.5 10V3.5H30.5L33.5 7L30.5 10H19.5Z" fill="#C1D5F0"/>
<path d="M14 17V10.5H4L1 14L4 17H14Z" fill="#C1D5F0"/>
<path d="M33.8283 6.45652L30.7374 3.28696C30.6229 3.16957 30.5084 3.11087 30.3367 3.11087H20.2626V0.586957C20.2626 0.234783 20.0337 0 19.6902 0H14.3098C13.9663 0 13.7374 0.234783 13.7374 0.586957V10.1543H3.6633C3.49158 10.1543 3.3771 10.213 3.26263 10.3304L0.171717 13.5C0.057239 13.6174 0 13.7348 0 13.9109C0 14.087 0.057239 14.2043 0.171717 14.3217L3.26263 17.4326C3.3771 17.55 3.49158 17.6087 3.6633 17.6087H13.7374V20.3674H10.0168C9.6734 20.3674 9.44444 20.6022 9.44444 20.9543V26.413C9.44444 26.7652 9.6734 27 10.0168 27H23.7542C24.0976 27 24.3266 26.7652 24.3266 26.413V20.9543C24.3266 20.6022 24.0976 20.3674 23.7542 20.3674H20.2626V10.5652H30.3367C30.5084 10.5652 30.6229 10.5065 30.7374 10.3891L33.8283 7.27826C33.9428 7.16087 34 7.04348 34 6.86739C34 6.6913 33.9428 6.57391 33.8283 6.45652ZM1.37374 13.9109L3.89226 11.3283H13.7374V16.4348H3.89226L1.37374 13.9109ZM23.1818 25.8261H10.5892V21.5413H23.1818V25.8261ZM14.8822 20.3674V17.0217V10.7413V1.17391H19.1178V20.3674H14.8822ZM30.1077 9.3913H20.2626V4.28478H30.1077L32.6263 6.86739L30.1077 9.3913Z" fill="#0957C3"/>
</svg>
